<svg width="178" height="178" viewBox="0 0 178 178" fill="none" xmlns="http://www.w3.org/2000/svg">
<path d="M23.6815 117.127C22.5791 113.462 20.4018 111.822 18.5719 108.768C17.4374 106.874 16.2655 103.182 15.4133 101.045C11.5944 91.471 10.7633 82.6396 11.0525 72.4378C11.136 69.4889 10.9233 63.9889 11.3973 61.1244C12.3353 55.4583 14.0581 49.3624 15.8012 43.8957C16.7662 40.8692 17.6085 37.671 18.7597 34.723C20.1506 31.1605 22.4306 28.1958 23.8024 24.587C24.1588 23.6496 25.7521 21.1205 26.7513 21.0231C29.8807 20.7182 30.4651 23.5039 31.9974 25.1552C33.0043 26.2404 34.5347 27.3235 35.5706 28.3869C37.3507 30.5348 40.0814 31.9808 42.0114 33.7603C45.5335 37.0075 49.1183 39.0227 53.2368 41.428C54.947 42.4268 56.6533 43.9896 58.4257 44.9372C60.3716 45.9775 62.5589 46.763 64.5149 47.7992C68.3596 50.1398 72.1506 51.9489 76.2126 53.8325C78.4513 54.8705 81.3303 56.9419 83.5276 58.2908C84.8204 59.0261 86.6269 59.989 87.8022 60.8242C88.1714 61.0928 95.396 67.4357 95.3814 67.4006C96.4394 69.9509 99.3152 72.434 100.416 74.5647C103.407 80.3527 106.808 86.969 108.014 93.4366C109.423 104.556 109.235 116.504 107.559 127.547C107.114 130.479 105.202 134.336 104.469 137.276C102.586 142.829 101.136 148.218 97.8718 153.139C97.4209 153.819 96.7317 155.657 96.0853 156.086C95.4007 154.932 95.665 147.527 95.3218 145.467C94.6474 141.417 93.2875 137.235 91.995 133.318C91.4829 131.897 90.3636 130.245 89.9044 128.863C88.5616 124.822 86.9762 121.631 84.3366 118.265C83.3236 116.974 82.4738 114.995 81.4104 113.628C77.0252 107.995 72.5499 102.448 67.2371 97.6606C66.881 97.3393 66.3249 97.0246 65.8459 97.0944C65.6531 98.0678 71.3487 106.154 72.5031 107.421C74.9629 110.119 76.0671 112.811 77.9575 115.742C86.4481 128.902 87.8372 142.559 87.7476 157.861C87.0069 157.747 85.8728 157.594 85.2388 157.202C76.9281 152.056 68.1493 147.669 59.5053 143.11C57.428 142.014 55.4601 140.673 53.414 139.558C50.6035 137.943 46.9233 136.678 44.3572 134.734C41.9691 132.926 39.8044 131.412 37.2107 129.876C36.1619 129.204 34.811 127.619 33.7922 127.034C29.5895 124.622 27.505 119.636 23.6815 117.127Z" fill="#029745"/>
<path d="M127.562 136.824C120.504 140.306 116.855 147.072 112.564 153.074C112.31 153.429 112.033 153.355 111.669 153.298C110.64 152.011 111.887 147.532 112.033 145.771C112.523 139.852 113.574 133.409 115.731 127.83C116.608 125.563 120.548 119.725 122.459 118.032C123.778 117.172 126.753 114.867 128.14 114.502C130.412 113.903 134.274 112.617 136.499 112.424C142.202 111.929 147.23 111.318 152.762 109.7C156.586 108.582 160.895 104.977 164.319 103.833C165.583 104.865 166.482 109.75 166.631 111.385C167.118 116.739 167.344 124.001 165.87 129.203C165.067 132.036 161.272 139.662 159.495 141.771C151.822 150.879 138.786 153.956 127.713 156.711C126.448 157.023 120.963 157.545 120.369 158C119.969 157.986 118.2 157.887 117.913 157.752C116.053 156.879 119.045 150.983 119.608 150.005C121.318 145.121 124.038 142.115 127.942 138.671C129.904 136.765 132.052 135.611 134.064 133.895C131.589 134.02 129.452 135.33 127.562 136.824Z" fill="#91C93F"/>
<path d="M127.562 136.824C129.452 135.33 131.589 134.02 134.064 133.895C132.052 135.611 129.904 136.765 127.942 138.671C127.44 137.945 127.489 137.728 127.562 136.824Z" fill="#79B32D" fill-opacity="0.0117647"/>
</svg>
